<?xml version="1.0" encoding="UTF-8" standalone="no"?>
<!DOCTYPE svg PUBLIC "-//W3C//DTD SVG 1.1//EN" "http://www.w3.org/Graphics/SVG/1.1/DTD/svg11.dtd">
<svg width="100%" height="100%" viewBox="0 0 19 19" version="1.1" xmlns="http://www.w3.org/2000/svg" xmlns:xlink="http://www.w3.org/1999/xlink" xml:space="preserve" xmlns:serif="http://www.serif.com/" style="fill-rule:evenodd;clip-rule:evenodd;stroke-linejoin:round;stroke-miterlimit:2;">
    <g>
        <rect x="0" y="0" width="18.984" height="18.467" style="fill-opacity:0;"/>
        <g>
            <path d="M4.58,6.768C5.869,6.777 6.895,5.723 6.904,4.434C6.914,3.154 5.869,2.129 4.58,2.129C3.291,2.129 2.266,3.164 2.266,4.443C2.266,5.732 3.291,6.758 4.58,6.768Z" style="fill-opacity:0.85;fill-rule:nonzero;"/>
            <path d="M4.58,8.906L14.043,8.906C16.563,8.906 18.623,7.109 18.623,4.453C18.623,1.797 16.563,0 14.043,0L4.58,0C2.061,0 0,1.797 0,4.453C0,7.109 2.061,8.906 4.58,8.906ZM4.58,7.432C2.939,7.432 1.475,6.23 1.475,4.453C1.475,2.676 2.939,1.475 4.58,1.475L14.043,1.475C15.684,1.475 17.148,2.676 17.148,4.453C17.148,6.23 15.684,7.432 14.043,7.432L4.58,7.432Z" style="fill-opacity:0.85;fill-rule:nonzero;"/>
        </g>
        <g transform="matrix(-1,-0.000778913,0.000778913,-1,19.0288,18.5121)">
            <path d="M4.58,6.768C5.869,6.777 6.895,5.723 6.904,4.434C6.914,3.154 5.869,2.129 4.58,2.129C3.291,2.129 2.266,3.164 2.266,4.443C2.266,5.732 3.291,6.758 4.58,6.768Z" style="fill-opacity:0.85;fill-rule:nonzero;"/>
            <path d="M4.58,8.906L14.043,8.906C16.563,8.906 18.623,7.109 18.623,4.453C18.623,1.797 16.563,0 14.043,0L4.58,0C2.061,0 0,1.797 0,4.453C0,7.109 2.061,8.906 4.58,8.906ZM4.58,7.432C2.939,7.432 1.475,6.23 1.475,4.453C1.475,2.676 2.939,1.475 4.58,1.475L14.043,1.475C15.684,1.475 17.148,2.676 17.148,4.453C17.148,6.23 15.684,7.432 14.043,7.432L4.58,7.432Z" style="fill-opacity:0.85;fill-rule:nonzero;"/>
        </g>
    </g>
</svg>
